<svg width="19" height="17" viewBox="0 0 19 17" fill="none" xmlns="http://www.w3.org/2000/svg">
<path d="M18.6963 7.76178L11.8347 0.900059C11.6389 0.704191 11.3778 0.59668 11.0995 0.59668C10.8208 0.59668 10.5599 0.704345 10.364 0.900059L9.74105 1.52319C9.54533 1.71875 9.43751 1.97996 9.43751 2.25847C9.43751 2.53683 9.54533 2.80684 9.74105 3.0024L13.744 7.01415H1.02645C0.453061 7.01415 0 7.46304 0 8.03659V8.91753C0 9.49108 0.453061 9.98523 1.02645 9.98523H13.7894L9.7412 14.0194C9.54549 14.2152 9.43767 14.4693 9.43767 14.7479C9.43767 15.0261 9.54549 15.2839 9.7412 15.4796L10.3642 16.1007C10.56 16.2966 10.8209 16.4033 11.0996 16.4033C11.378 16.4033 11.639 16.2952 11.8349 16.0993L18.6965 9.23775C18.8928 9.04126 19.0008 8.77897 19 8.50015C19.0006 8.22041 18.8928 7.95796 18.6963 7.76178Z" fill="#2878EB"/>
</svg>
