<svg width="154" height="146" viewBox="0 0 154 146" fill="none" xmlns="http://www.w3.org/2000/svg">
<path d="M48.6602 142.732C48.6602 144.502 47.1651 146 45.3981 146C43.6311 146 42.1359 144.502 42.1359 142.732C42.1359 140.961 43.6311 139.463 45.3981 139.463C47.1651 139.463 48.6602 140.825 48.6602 142.732Z" fill="#C7C7C7"/>
<path d="M69.7282 142.732C69.7282 144.502 68.233 146 66.466 146C64.699 146 63.2039 144.502 63.2039 142.732C63.2039 140.961 64.699 139.463 66.466 139.463C68.233 139.463 69.7282 140.825 69.7282 142.732Z" fill="#C7C7C7"/>
<path d="M90.7961 142.732C90.7961 144.502 89.301 146 87.534 146C85.767 146 84.2718 144.502 84.2718 142.732C84.2718 140.961 85.767 139.463 87.534 139.463C89.301 139.463 90.7961 140.825 90.7961 142.732Z" fill="#C7C7C7"/>
<path d="M111.864 142.732C111.864 144.502 110.369 146 108.602 146C106.835 146 105.34 144.502 105.34 142.732C105.34 140.961 106.835 139.463 108.602 139.463C110.369 139.463 111.864 140.825 111.864 142.732Z" fill="#C7C7C7"/>
<path d="M27.5922 122.847C27.5922 124.618 26.0971 126.116 24.3301 126.116C22.5631 126.116 21.068 124.618 21.068 122.847C21.068 121.077 22.5631 119.578 24.3301 119.578C26.233 119.442 27.5922 120.94 27.5922 122.847Z" fill="#C7C7C7"/>
<path d="M48.6602 122.847C48.6602 124.618 47.1651 126.116 45.3981 126.116C43.6311 126.116 42.1359 124.618 42.1359 122.847C42.1359 121.077 43.6311 119.578 45.3981 119.578C47.1651 119.442 48.6602 120.94 48.6602 122.847Z" fill="#C7C7C7"/>
<path d="M69.7282 122.847C69.7282 124.618 68.233 126.116 66.466 126.116C64.699 126.116 63.2039 124.618 63.2039 122.847C63.2039 121.077 64.699 119.578 66.466 119.578C68.233 119.442 69.7282 120.94 69.7282 122.847Z" fill="#C7C7C7"/>
<path d="M90.7961 122.847C90.7961 124.618 89.301 126.116 87.534 126.116C85.767 126.116 84.2718 124.618 84.2718 122.847C84.2718 121.077 85.767 119.578 87.534 119.578C89.301 119.442 90.7961 120.94 90.7961 122.847Z" fill="#C7C7C7"/>
<path d="M111.864 122.847C111.864 124.618 110.369 126.116 108.602 126.116C106.835 126.116 105.34 124.618 105.34 122.847C105.34 121.077 106.835 119.578 108.602 119.578C110.369 119.442 111.864 120.94 111.864 122.847Z" fill="#C7C7C7"/>
<path d="M132.932 122.847C132.932 124.618 131.437 126.116 129.67 126.116C127.903 126.116 126.408 124.618 126.408 122.847C126.408 121.077 127.903 119.578 129.67 119.578C131.437 119.442 132.932 120.94 132.932 122.847Z" fill="#C7C7C7"/>
<path d="M27.5922 102.826C27.5922 104.597 26.0971 106.095 24.3301 106.095C22.5631 106.095 21.068 104.597 21.068 102.826C21.068 101.056 22.5631 99.5576 24.3301 99.5576C26.233 99.5576 27.5922 101.056 27.5922 102.826Z" fill="#C7C7C7"/>
<path d="M48.6602 102.826C48.6602 104.597 47.1651 106.095 45.3981 106.095C43.6311 106.095 42.1359 104.597 42.1359 102.826C42.1359 101.056 43.6311 99.5576 45.3981 99.5576C47.1651 99.5576 48.6602 101.056 48.6602 102.826Z" fill="#C7C7C7"/>
<path d="M69.7282 102.826C69.7282 104.597 68.233 106.095 66.466 106.095C64.699 106.095 63.2039 104.597 63.2039 102.826C63.2039 101.056 64.699 99.5576 66.466 99.5576C68.233 99.5576 69.7282 101.056 69.7282 102.826Z" fill="#C7C7C7"/>
<path d="M90.7961 102.826C90.7961 104.597 89.301 106.095 87.534 106.095C85.767 106.095 84.2718 104.597 84.2718 102.826C84.2718 101.056 85.767 99.5576 87.534 99.5576C89.301 99.5576 90.7961 101.056 90.7961 102.826Z" fill="#C7C7C7"/>
<path d="M111.864 102.826C111.864 104.597 110.369 106.095 108.602 106.095C106.835 106.095 105.34 104.597 105.34 102.826C105.34 101.056 106.835 99.5576 108.602 99.5576C110.369 99.5576 111.864 101.056 111.864 102.826Z" fill="#C7C7C7"/>
<path d="M132.932 102.826C132.932 104.597 131.437 106.095 129.67 106.095C127.767 106.231 126.408 104.733 126.408 102.826C126.408 101.056 127.903 99.5576 129.67 99.5576C131.437 99.5576 132.932 101.056 132.932 102.826Z" fill="#C7C7C7"/>
<path d="M6.52427 82.942C6.52427 84.7125 5.02913 86.2107 3.26214 86.2107C1.49515 86.2107 0 84.7125 0 82.942C0 81.1715 1.49515 79.6733 3.26214 79.6733C5.16505 79.6733 6.52427 81.1715 6.52427 82.942Z" fill="#C7C7C7"/>
<path d="M27.5922 82.942C27.5922 84.7125 26.0971 86.2107 24.3301 86.2107C22.5631 86.2107 21.068 84.7125 21.068 82.942C21.068 81.1715 22.5631 79.6733 24.3301 79.6733C26.233 79.6733 27.5922 81.1715 27.5922 82.942Z" fill="#C7C7C7"/>
<path d="M48.6602 82.942C48.6602 84.7125 47.1651 86.2107 45.3981 86.2107C43.6311 86.2107 42.1359 84.7125 42.1359 82.942C42.1359 81.1715 43.6311 79.6733 45.3981 79.6733C47.1651 79.6733 48.6602 81.1715 48.6602 82.942Z" fill="#C7C7C7"/>
<path d="M69.7282 82.942C69.7282 84.7125 68.233 86.2107 66.466 86.2107C64.699 86.2107 63.2039 84.7125 63.2039 82.942C63.2039 81.1715 64.699 79.6733 66.466 79.6733C68.233 79.6733 69.7282 81.1715 69.7282 82.942Z" fill="#C7C7C7"/>
<path d="M90.7961 82.942C90.7961 84.7125 89.301 86.2107 87.534 86.2107C85.767 86.2107 84.2718 84.7125 84.2718 82.942C84.2718 81.1715 85.767 79.6733 87.534 79.6733C89.301 79.6733 90.7961 81.1715 90.7961 82.942Z" fill="#C7C7C7"/>
<path d="M111.864 82.942C111.864 84.7125 110.369 86.2107 108.602 86.2107C106.835 86.2107 105.34 84.7125 105.34 82.942C105.34 81.1715 106.835 79.6733 108.602 79.6733C110.369 79.6733 111.864 81.1715 111.864 82.942Z" fill="#C7C7C7"/>
<path d="M132.932 82.942C132.932 84.7125 131.437 86.2107 129.67 86.2107C127.903 86.2107 126.408 84.7125 126.408 82.942C126.408 81.1715 127.903 79.6733 129.67 79.6733C131.437 79.6733 132.932 81.1715 132.932 82.942Z" fill="#C7C7C7"/>
<path d="M150.738 86.2107C152.539 86.2107 154 84.7472 154 82.942C154 81.1368 152.539 79.6733 150.738 79.6733C148.936 79.6733 147.476 81.1368 147.476 82.942C147.476 84.7472 148.936 86.2107 150.738 86.2107Z" fill="#C7C7C7"/>
<path d="M6.52427 63.0577C6.52427 64.8282 5.02913 66.3264 3.26214 66.3264C1.49515 66.3264 0 64.8282 0 63.0577C0 61.2872 1.49515 59.7891 3.26214 59.7891C5.16505 59.7891 6.52427 61.2872 6.52427 63.0577Z" fill="#C7C7C7"/>
<path d="M27.5922 63.0577C27.5922 64.8282 26.0971 66.3264 24.3301 66.3264C22.5631 66.3264 21.068 64.8282 21.068 63.0577C21.068 61.2872 22.5631 59.7891 24.3301 59.7891C26.233 59.7891 27.5922 61.2872 27.5922 63.0577Z" fill="#C7C7C7"/>
<path d="M48.6602 63.0577C48.6602 64.8282 47.1651 66.3264 45.3981 66.3264C43.6311 66.3264 42.1359 64.8282 42.1359 63.0577C42.1359 61.2872 43.6311 59.7891 45.3981 59.7891C47.1651 59.7891 48.6602 61.2872 48.6602 63.0577Z" fill="#C7C7C7"/>
<path d="M69.7282 63.0577C69.7282 64.8282 68.233 66.3264 66.466 66.3264C64.699 66.3264 63.2039 64.8282 63.2039 63.0577C63.2039 61.2872 64.699 59.7891 66.466 59.7891C68.233 59.7891 69.7282 61.2872 69.7282 63.0577Z" fill="#C7C7C7"/>
<path d="M90.7961 63.0577C90.7961 64.8282 89.301 66.3264 87.534 66.3264C85.767 66.3264 84.2718 64.8282 84.2718 63.0577C84.2718 61.2872 85.767 59.7891 87.534 59.7891C89.301 59.7891 90.7961 61.2872 90.7961 63.0577Z" fill="#C7C7C7"/>
<path d="M111.864 63.0577C111.864 64.8282 110.369 66.3264 108.602 66.3264C106.835 66.3264 105.34 64.8282 105.34 63.0577C105.34 61.2872 106.835 59.7891 108.602 59.7891C110.369 59.7891 111.864 61.2872 111.864 63.0577Z" fill="#C7C7C7"/>
<path d="M132.932 63.0577C132.932 64.8282 131.437 66.3264 129.67 66.3264C127.903 66.3264 126.408 64.8282 126.408 63.0577C126.408 61.2872 127.903 59.7891 129.67 59.7891C131.437 59.7891 132.932 61.2872 132.932 63.0577Z" fill="#C7C7C7"/>
<path d="M154 63.0577C154 64.8282 152.505 66.3264 150.738 66.3264C148.971 66.3264 147.476 64.8282 147.476 63.0577C147.476 61.2872 148.971 59.7891 150.738 59.7891C152.505 59.7891 154 61.2872 154 63.0577Z" fill="#C7C7C7"/>
<path d="M27.5922 43.1737C27.5922 44.9443 26.0971 46.4424 24.3301 46.4424C22.5631 46.4424 21.068 44.9443 21.068 43.1737C21.068 41.4032 22.5631 39.9051 24.3301 39.9051C26.233 39.7689 27.5922 41.267 27.5922 43.1737Z" fill="#C7C7C7"/>
<path d="M48.6602 43.1737C48.6602 44.9443 47.1651 46.4424 45.3981 46.4424C43.6311 46.4424 42.1359 44.9443 42.1359 43.1737C42.1359 41.4032 43.6311 39.9051 45.3981 39.9051C47.1651 39.7689 48.6602 41.267 48.6602 43.1737Z" fill="#C7C7C7"/>
<path d="M69.7282 43.1737C69.7282 44.9443 68.233 46.4424 66.466 46.4424C64.699 46.4424 63.2039 44.9443 63.2039 43.1737C63.2039 41.4032 64.699 39.9051 66.466 39.9051C68.233 39.7689 69.7282 41.267 69.7282 43.1737Z" fill="#C7C7C7"/>
<path d="M90.7961 43.1737C90.7961 44.9443 89.301 46.4424 87.534 46.4424C85.767 46.4424 84.2718 44.9443 84.2718 43.1737C84.2718 41.4032 85.767 39.9051 87.534 39.9051C89.301 39.7689 90.7961 41.267 90.7961 43.1737Z" fill="#C7C7C7"/>
<path d="M111.864 43.1737C111.864 44.9443 110.369 46.4424 108.602 46.4424C106.835 46.4424 105.34 44.9443 105.34 43.1737C105.34 41.4032 106.835 39.9051 108.602 39.9051C110.369 39.7689 111.864 41.267 111.864 43.1737Z" fill="#C7C7C7"/>
<path d="M132.932 43.1737C132.932 44.9443 131.437 46.4424 129.67 46.4424C127.767 46.4424 126.408 44.9443 126.408 43.1737C126.408 41.4032 127.903 39.9051 129.67 39.9051C131.437 39.7689 132.932 41.267 132.932 43.1737Z" fill="#C7C7C7"/>
<path d="M27.5922 23.1529C27.5922 24.9235 26.0971 26.4216 24.3301 26.4216C22.5631 26.4216 21.068 24.9235 21.068 23.1529C21.068 21.3824 22.5631 19.8843 24.3301 19.8843C26.233 19.8843 27.5922 21.3824 27.5922 23.1529Z" fill="#C7C7C7"/>
<path d="M48.6602 23.1529C48.6602 24.9235 47.1651 26.4216 45.3981 26.4216C43.6311 26.4216 42.1359 24.9235 42.1359 23.1529C42.1359 21.3824 43.6311 19.8843 45.3981 19.8843C47.1651 19.8843 48.6602 21.3824 48.6602 23.1529Z" fill="#C7C7C7"/>
<path d="M69.7282 23.1529C69.7282 24.9235 68.233 26.4216 66.466 26.4216C64.699 26.4216 63.2039 24.9235 63.2039 23.1529C63.2039 21.3824 64.699 19.8843 66.466 19.8843C68.233 19.8843 69.7282 21.3824 69.7282 23.1529Z" fill="#C7C7C7"/>
<path d="M90.7961 23.1529C90.7961 24.9235 89.301 26.4216 87.534 26.4216C85.767 26.4216 84.2718 24.9235 84.2718 23.1529C84.2718 21.3824 85.767 19.8843 87.534 19.8843C89.301 19.8843 90.7961 21.3824 90.7961 23.1529Z" fill="#C7C7C7"/>
<path d="M111.864 23.1529C111.864 24.9235 110.369 26.4216 108.602 26.4216C106.835 26.4216 105.34 24.9235 105.34 23.1529C105.34 21.3824 106.835 19.8843 108.602 19.8843C110.369 19.8843 111.864 21.3824 111.864 23.1529Z" fill="#C7C7C7"/>
<path d="M132.932 23.1529C132.932 24.9235 131.437 26.4216 129.67 26.4216C127.767 26.5578 126.408 25.0597 126.408 23.1529C126.408 21.3824 127.903 19.8843 129.67 19.8843C131.437 19.8843 132.932 21.3824 132.932 23.1529Z" fill="#C7C7C7"/>
<path d="M48.6602 3.26866C48.6602 5.03918 47.1651 6.53731 45.3981 6.53731C43.6311 6.53731 42.1359 5.03918 42.1359 3.26866C42.1359 1.49813 43.6311 0 45.3981 0C47.1651 0 48.6602 1.49813 48.6602 3.26866Z" fill="#C7C7C7"/>
<path d="M69.7282 3.26866C69.7282 5.03918 68.233 6.53731 66.466 6.53731C64.699 6.53731 63.2039 5.03918 63.2039 3.26866C63.2039 1.49813 64.699 0 66.466 0C68.233 0 69.7282 1.49813 69.7282 3.26866Z" fill="#C7C7C7"/>
<path d="M90.7961 3.26866C90.7961 5.03918 89.301 6.53731 87.534 6.53731C85.767 6.53731 84.2718 5.03918 84.2718 3.26866C84.2718 1.49813 85.767 0 87.534 0C89.301 0 90.7961 1.49813 90.7961 3.26866Z" fill="#C7C7C7"/>
<path d="M111.864 3.26866C111.864 5.03918 110.369 6.53731 108.602 6.53731C106.835 6.53731 105.34 5.03918 105.34 3.26866C105.34 1.49813 106.699 0 108.602 0C110.369 0 111.864 1.49813 111.864 3.26866Z" fill="#C7C7C7"/>
</svg>
