<svg width="38" height="38" viewBox="0 0 38 38" fill="none" xmlns="http://www.w3.org/2000/svg">
<path d="M28.5697 9.39058C28.0231 9.93719 27.9775 10.7875 28.4634 11.3948C30.665 14.1582 31.819 17.939 30.7865 21.9019C29.587 26.5329 25.9581 29.9948 21.3574 30.921C13.6138 32.4545 6.8267 26.4722 6.8267 18.9866C6.8267 12.7917 11.4577 7.69001 17.4552 6.94601V10.0131C12.7028 10.8178 9.21053 15.2666 9.96971 20.3835C10.5619 24.3465 13.8567 27.535 17.8348 28.0209C23.3617 28.7042 28.0838 24.392 28.0838 18.9866C28.0838 17.0887 27.5068 15.3426 26.5199 13.8849C26.0036 13.1258 24.8952 13.0802 24.2423 13.7179L24.2272 13.7331C23.7109 14.2493 23.6654 15.0541 24.0601 15.6614C24.9712 17.0583 25.3356 18.85 24.8041 20.7024C24.212 22.7826 22.4659 24.4376 20.3401 24.9083C16.3924 25.7737 12.9002 22.7977 12.9002 18.9866C12.9002 16.1625 14.8437 13.809 17.4552 13.1258V16.3751C16.5442 16.9065 15.9369 17.8631 15.9369 18.9866C15.9369 20.6568 17.3034 22.0234 18.9736 22.0234C20.6438 22.0234 22.0103 20.6568 22.0103 18.9866C22.0103 17.8631 21.403 16.8913 20.492 16.3751V4.88104C20.492 4.28887 20.0061 3.803 19.4139 3.803C11.2755 3.49932 4.26066 9.96756 3.82033 18.0756C3.27372 28.0209 12.0347 36.0227 22.0559 33.8666C27.9471 32.6064 32.5022 28.0968 33.8232 22.2208C34.9013 17.4227 33.5195 12.8676 30.832 9.51205C30.2702 8.79842 29.2074 8.75286 28.5697 9.39058Z" fill="white"/>
<mask id="mask0" style="mask-type:alpha" maskUnits="userSpaceOnUse" x="3" y="3" width="32" height="32">
<path d="M28.5697 9.39058C28.0231 9.93719 27.9775 10.7875 28.4634 11.3948C30.665 14.1582 31.819 17.939 30.7865 21.9019C29.587 26.5329 25.9581 29.9948 21.3574 30.921C13.6138 32.4545 6.8267 26.4722 6.8267 18.9866C6.8267 12.7917 11.4577 7.69001 17.4552 6.94601V10.0131C12.7028 10.8178 9.21053 15.2666 9.96971 20.3835C10.5619 24.3465 13.8567 27.535 17.8348 28.0209C23.3617 28.7042 28.0838 24.392 28.0838 18.9866C28.0838 17.0887 27.5068 15.3426 26.5199 13.8849C26.0036 13.1258 24.8952 13.0802 24.2423 13.7179L24.2272 13.7331C23.7109 14.2493 23.6654 15.0541 24.0601 15.6614C24.9712 17.0583 25.3356 18.85 24.8041 20.7024C24.212 22.7826 22.4659 24.4376 20.3401 24.9083C16.3924 25.7737 12.9002 22.7977 12.9002 18.9866C12.9002 16.1625 14.8437 13.809 17.4552 13.1258V16.3751C16.5442 16.9065 15.9369 17.8631 15.9369 18.9866C15.9369 20.6568 17.3034 22.0234 18.9736 22.0234C20.6438 22.0234 22.0103 20.6568 22.0103 18.9866C22.0103 17.8631 21.403 16.8913 20.492 16.3751V4.88104C20.492 4.28887 20.0061 3.803 19.4139 3.803C11.2755 3.49932 4.26066 9.96756 3.82033 18.0756C3.27372 28.0209 12.0347 36.0227 22.0559 33.8666C27.9471 32.6064 32.5022 28.0968 33.8232 22.2208C34.9013 17.4227 33.5195 12.8676 30.832 9.51205C30.2702 8.79842 29.2074 8.75286 28.5697 9.39058Z" fill="white"/>
</mask>
<g mask="url(#mask0)">
</g>
</svg>
