<svg width="180" height="46" viewBox="0 0 180 46" fill="none" xmlns="http://www.w3.org/2000/svg">
<path d="M6.30354 24.052H1.26611V0.390223H12.3343C14.8175 0.390223 16.7568 1.12337 18.1522 2.58967C19.5711 4.03231 20.2806 5.84153 20.2806 8.01732C20.2806 10.1695 19.5711 11.9787 18.1522 13.445C16.7332 14.9113 14.7939 15.6444 12.3343 15.6444H6.30354V24.052ZM11.6603 11.2101C12.6772 11.2101 13.5049 10.9263 14.1435 10.3587C14.8057 9.76741 15.1368 8.98697 15.1368 8.01732C15.1368 7.04767 14.8057 6.27905 14.1435 5.71145C13.5049 5.12021 12.6772 4.82458 11.6603 4.82458H6.30354V11.2101H11.6603Z" fill="#FF723A"/>
<path d="M48.9882 24.052H43.9153V14.119H32.7407V24.052H27.7032V0.390223H32.7407V9.68464H43.9153V0.390223H48.9882V24.052Z" fill="#FF723A"/>
<path d="M69.1612 24.4777C65.5901 24.4777 62.6338 23.3306 60.2925 21.0366C57.9748 18.7189 56.816 15.7863 56.816 12.2388C56.816 8.69134 57.9748 5.77058 60.2925 3.47654C62.6338 1.15885 65.5901 0 69.1612 0C72.756 0 75.7122 1.14702 78.0299 3.44106C80.3713 5.7351 81.5419 8.66769 81.5419 12.2388C81.5419 15.81 80.3713 18.7426 78.0299 21.0366C75.7122 23.3306 72.756 24.4777 69.1612 24.4777ZM63.9464 17.8084C65.2708 19.2747 67.0091 20.0078 69.1612 20.0078C71.3134 20.0078 73.0516 19.2747 74.376 17.8084C75.7004 16.3421 76.3626 14.4856 76.3626 12.2388C76.3626 9.99209 75.7004 8.13557 74.376 6.66928C73.0516 5.20298 71.3134 4.46983 69.1612 4.46983C67.0091 4.46983 65.2708 5.20298 63.9464 6.66928C62.6457 8.13557 61.9953 9.99209 61.9953 12.2388C61.9953 14.4856 62.6457 16.3421 63.9464 17.8084Z" fill="#FF723A"/>
<path d="M106.121 24.052H89.3769V0.390223H106.121V4.82458H94.4144V9.82654H105.873V14.2609H94.4144V19.6176H106.121V24.052Z" fill="#FF723A"/>
<path d="M135.538 24.052H130.677L119.396 8.62039V24.052H114.359V0.390223H119.538L130.5 15.2542V0.390223H135.538V24.052Z" fill="#FF723A"/>
<path d="M149.54 24.052H144.503V0.390223H149.54V24.052Z" fill="#FF723A"/>
<path d="M180 24.052H173.969L168.045 15.3961L162.085 24.052H156.09L164.675 11.9196L156.622 0.390223H162.617L168.045 8.47849L173.402 0.390223H179.468L171.415 11.8841L180 24.052Z" fill="#FF723A"/>
<path d="M6.36599 45.5519C4.57188 45.5519 3.06235 44.9545 1.83741 43.7597C0.612471 42.5525 0 40.9968 0 39.0926C0 37.1884 0.612471 35.6389 1.83741 34.4441C3.06235 33.2493 4.57188 32.6519 6.36599 32.6519C8.32094 32.6519 9.92327 33.4298 11.173 34.9855L9.94801 35.7509C9.55207 35.2282 9.0324 34.8113 8.389 34.5001C7.75797 34.189 7.08363 34.0334 6.36599 34.0334C5.00494 34.0334 3.86661 34.5126 2.951 35.4709C2.04776 36.4168 1.59614 37.624 1.59614 39.0926C1.59614 40.5612 2.04776 41.7746 2.951 42.7329C3.86661 43.6913 5.00494 44.1704 6.36599 44.1704C7.04651 44.1704 7.67754 44.0397 8.25908 43.7784C8.85299 43.5046 9.32936 43.1872 9.68818 42.8263V40.2874H5.438V38.9059H11.2286V43.405C9.9542 44.8363 8.33332 45.5519 6.36599 45.5519Z" fill="#959595"/>
<path d="M25.3931 45.3092H18.0992V32.8573H19.6396V43.9277H25.3931V45.3092Z" fill="#959595"/>
<path d="M36.9351 45.5332C35.1162 45.5332 33.6376 44.9234 32.4993 43.7037C31.3609 42.484 30.7918 40.947 30.7918 39.0926C30.7918 37.2382 31.3609 35.7011 32.4993 34.4814C33.6376 33.2618 35.1162 32.6519 36.9351 32.6519C38.7415 32.6519 40.2139 33.2618 41.3523 34.4814C42.503 35.7011 43.0783 37.2382 43.0783 39.0926C43.0783 40.947 42.503 42.484 41.3523 43.7037C40.2139 44.9234 38.7415 45.5332 36.9351 45.5332ZM36.9351 44.1517C38.2961 44.1517 39.3911 43.6788 40.2201 42.7329C41.0615 41.7746 41.4822 40.5612 41.4822 39.0926C41.4822 37.6115 41.0615 36.3981 40.2201 35.4522C39.3911 34.5063 38.2961 34.0334 36.9351 34.0334C35.5616 34.0334 34.4604 34.5063 33.6314 35.4522C32.8024 36.3981 32.3879 37.6115 32.3879 39.0926C32.3879 40.5612 32.8024 41.7746 33.6314 42.7329C34.4604 43.6788 35.5616 44.1517 36.9351 44.1517Z" fill="#959595"/>
<path d="M55.4937 45.3092H49.8516V32.8573H55.3638C56.4279 32.8573 57.2693 33.1498 57.8879 33.7347C58.5189 34.3197 58.8345 35.0851 58.8345 36.0309C58.8345 36.7777 58.6241 37.4124 58.2034 37.9351C57.7827 38.4454 57.2693 38.7628 56.663 38.8872C57.3187 38.9868 57.8817 39.3353 58.3519 39.9327C58.8345 40.53 59.0757 41.2021 59.0757 41.9489C59.0757 42.957 58.754 43.7721 58.1106 44.3944C57.4796 45.0043 56.6073 45.3092 55.4937 45.3092ZM55.104 38.2525C55.7845 38.2525 56.3103 38.0658 56.6815 37.6924C57.0527 37.3191 57.2383 36.8399 57.2383 36.255C57.2383 35.67 57.0465 35.1909 56.663 34.8175C56.2918 34.4317 55.7721 34.2388 55.104 34.2388H51.392V38.2525H55.104ZM55.1782 43.9277C55.8958 43.9277 56.4588 43.7348 56.8671 43.349C57.2754 42.9632 57.4796 42.4405 57.4796 41.7808C57.4796 41.171 57.2754 40.6607 56.8671 40.25C56.4712 39.8393 55.9082 39.634 55.1782 39.634H51.392V43.9277H55.1782Z" fill="#959595"/>
<path d="M76.4885 45.3092H74.7253L73.6303 42.5462H67.4685L66.3734 45.3092H64.6103L69.5843 32.8573H71.4959L76.4885 45.3092ZM73.1663 41.1648L70.5494 34.4628L67.9139 41.1648H73.1663Z" fill="#959595"/>
<path d="M89.7679 45.3092H82.4739V32.8573H84.0144V43.9277H89.7679V45.3092Z" fill="#959595"/>
<path d="M109.463 45.5332C107.458 45.5332 105.875 44.8736 104.712 43.5543L105.621 42.3782C106.673 43.5606 107.972 44.1517 109.519 44.1517C110.521 44.1517 111.257 43.9402 111.727 43.517C112.197 43.0814 112.432 42.5774 112.432 42.0049C112.432 41.5693 112.296 41.2021 112.024 40.9034C111.752 40.6047 111.399 40.3745 110.966 40.2127C110.546 40.0384 110.069 39.8829 109.537 39.746C109.017 39.6091 108.498 39.4597 107.978 39.2979C107.458 39.1237 106.982 38.9183 106.549 38.6819C106.128 38.4454 105.782 38.1094 105.51 37.6738C105.237 37.2382 105.101 36.7217 105.101 36.1243C105.101 35.1037 105.503 34.2761 106.308 33.6414C107.112 32.9942 108.127 32.6706 109.352 32.6706C111.195 32.6706 112.661 33.2493 113.75 34.4068L112.822 35.5456C111.919 34.5499 110.725 34.0521 109.24 34.0521C108.498 34.0521 107.885 34.2388 107.403 34.6121C106.933 34.9731 106.697 35.446 106.697 36.0309C106.697 36.4665 106.877 36.8275 107.236 37.1137C107.607 37.4 108.059 37.6115 108.591 37.7484C109.135 37.8853 109.723 38.0596 110.354 38.2712C110.997 38.4703 111.585 38.6881 112.117 38.9246C112.661 39.1486 113.113 39.5157 113.472 40.026C113.843 40.5363 114.029 41.1523 114.029 41.8742C114.029 42.8947 113.651 43.7597 112.896 44.4691C112.154 45.1785 111.01 45.5332 109.463 45.5332Z" fill="#959595"/>
<path d="M125.19 45.3092H123.649V34.2388H119.733V32.8573H129.125V34.2388H125.19V45.3092Z" fill="#959595"/>
<path d="M144.336 44.1891C143.482 45.0852 142.233 45.5332 140.587 45.5332C138.941 45.5332 137.686 45.0852 136.82 44.1891C135.966 43.2805 135.539 42.0422 135.539 40.474V32.8573H137.079V40.4367C137.079 41.5942 137.382 42.5027 137.989 43.1623C138.595 43.8219 139.461 44.1517 140.587 44.1517C141.713 44.1517 142.579 43.8219 143.185 43.1623C143.792 42.5027 144.095 41.5942 144.095 40.4367V32.8573H145.635V40.4554C145.635 42.036 145.202 43.2805 144.336 44.1891Z" fill="#959595"/>
<path d="M157.133 45.3092H152.901V32.8573H157.133C159.026 32.8573 160.554 33.4485 161.717 34.6308C162.893 35.8131 163.48 37.3004 163.48 39.0926C163.48 40.8972 162.893 42.3845 161.717 43.5543C160.554 44.7242 159.026 45.3092 157.133 45.3092ZM157.133 43.9277C158.593 43.9277 159.75 43.4672 160.604 42.5462C161.457 41.6253 161.884 40.474 161.884 39.0926C161.884 37.6987 161.464 36.5412 160.622 35.6202C159.781 34.6992 158.618 34.2388 157.133 34.2388H154.442V43.9277H157.133Z" fill="#959595"/>
<path d="M174.662 45.3092H173.121V40.0447L168.24 32.8573H170.04L173.882 38.6445L177.724 32.8573H179.524L174.662 40.0447V45.3092Z" fill="#959595"/>
</svg>
