<svg width="129" height="136" viewBox="0 0 129 136" fill="none" xmlns="http://www.w3.org/2000/svg">
<path d="M34.6965 109.106L39.9073 114.459" stroke="#FF723A" stroke-width="1.1533" stroke-miterlimit="10" stroke-linecap="round" stroke-linejoin="round"/>
<path d="M16.6492 91.0063L26.3083 100.821" stroke="#FF723A" stroke-width="1.1533" stroke-miterlimit="10" stroke-linecap="round" stroke-linejoin="round"/>
<path d="M33.0443 92.2812L69.3931 128.735" stroke="#FF723A" stroke-width="1.1533" stroke-miterlimit="10" stroke-linecap="round" stroke-linejoin="round"/>
<path d="M14.4887 73.6719L21.8601 81.0646" stroke="#FF723A" stroke-width="1.1533" stroke-miterlimit="10" stroke-linecap="round" stroke-linejoin="round"/>
<path d="M59.0985 103.243L91.1261 135.363" stroke="#FF723A" stroke-width="1.1533" stroke-miterlimit="10" stroke-linecap="round" stroke-linejoin="round"/>
<path d="M10.93 54.8076L44.9911 88.9669" stroke="#FF723A" stroke-width="1.1533" stroke-miterlimit="10" stroke-linecap="round" stroke-linejoin="round"/>
<path d="M37.6197 66.4067L94.1763 122.999" stroke="#FF723A" stroke-width="1.1533" stroke-miterlimit="10" stroke-linecap="round" stroke-linejoin="round"/>
<path d="M14.2344 42.9541L26.1812 54.9354" stroke="#FF723A" stroke-width="1.1533" stroke-miterlimit="10" stroke-linecap="round" stroke-linejoin="round"/>
<path d="M84.263 97.8892L97.862 111.527" stroke="#FF723A" stroke-width="1.1533" stroke-miterlimit="10" stroke-linecap="round" stroke-linejoin="round"/>
<path d="M0.762543 14.1479L70.0286 83.6137" stroke="#FF723A" stroke-width="1.1533" stroke-miterlimit="10" stroke-linecap="round" stroke-linejoin="round"/>
<path d="M56.3024 54.5527L123.916 122.489" stroke="#FF723A" stroke-width="1.1533" stroke-miterlimit="10" stroke-linecap="round" stroke-linejoin="round"/>
<path d="M26.4355 24.5996L42.068 40.4047" stroke="#FF723A" stroke-width="1.1533" stroke-miterlimit="10" stroke-linecap="round" stroke-linejoin="round"/>
<path d="M69.3931 52.5137L113.113 96.36" stroke="#FF723A" stroke-width="1.1533" stroke-miterlimit="10" stroke-linecap="round" stroke-linejoin="round"/>
<path d="M24.7832 7.7749L57.065 40.1498" stroke="#FF723A" stroke-width="1.1533" stroke-miterlimit="10" stroke-linecap="round" stroke-linejoin="round"/>
<path d="M105.488 73.417L128.237 96.3598" stroke="#FF723A" stroke-width="1.1533" stroke-miterlimit="10" stroke-linecap="round" stroke-linejoin="round"/>
<path d="M44.4827 12.3633L88.8384 56.7194" stroke="#FF723A" stroke-width="1.1533" stroke-miterlimit="10" stroke-linecap="round" stroke-linejoin="round"/>
<path d="M83.3734 35.9438L114.13 66.9167" stroke="#FF723A" stroke-width="1.1533" stroke-miterlimit="10" stroke-linecap="round" stroke-linejoin="round"/>
<path d="M48.1685 0.764648L71.2996 23.8349" stroke="#FF723A" stroke-width="1.1533" stroke-miterlimit="10" stroke-linecap="round" stroke-linejoin="round"/>
<path d="M110.698 48.1797L122.772 60.2884" stroke="#FF723A" stroke-width="1.1533" stroke-miterlimit="10" stroke-linecap="round" stroke-linejoin="round"/>
<path d="M66.597 3.95117L97.0995 34.5416" stroke="#FF723A" stroke-width="1.1533" stroke-miterlimit="10" stroke-linecap="round" stroke-linejoin="round"/>
<path d="M104.471 26.7666L111.842 34.1593" stroke="#FF723A" stroke-width="1.1533" stroke-miterlimit="10" stroke-linecap="round" stroke-linejoin="round"/>
<path d="M91.6345 13.7656L96.7183 18.864" stroke="#FF723A" stroke-width="1.1533" stroke-miterlimit="10" stroke-linecap="round" stroke-linejoin="round"/>
</svg>
