<svg width="792" height="892" viewBox="0 0 792 892" fill="none" xmlns="http://www.w3.org/2000/svg">
<path d="M48.1448 268.823L55.3753 276.223" stroke="#FF723A" stroke-width="1.1533" stroke-miterlimit="10" stroke-linecap="round" stroke-linejoin="round"/>
<path d="M23.1025 243.803L36.5055 257.37" stroke="#FF723A" stroke-width="1.1533" stroke-miterlimit="10" stroke-linecap="round" stroke-linejoin="round"/>
<path d="M45.8523 245.565L96.2897 295.957" stroke="#FF723A" stroke-width="1.1533" stroke-miterlimit="10" stroke-linecap="round" stroke-linejoin="round"/>
<path d="M20.1045 219.841L30.3331 230.06" stroke="#FF723A" stroke-width="1.1533" stroke-miterlimit="10" stroke-linecap="round" stroke-linejoin="round"/>
<path d="M82.0049 260.718L126.446 305.119" stroke="#FF723A" stroke-width="1.1533" stroke-miterlimit="10" stroke-linecap="round" stroke-linejoin="round"/>
<path d="M15.1665 193.764L62.4296 240.984" stroke="#FF723A" stroke-width="1.1533" stroke-miterlimit="10" stroke-linecap="round" stroke-linejoin="round"/>
<path d="M52.2009 209.798L130.679 288.028" stroke="#FF723A" stroke-width="1.1533" stroke-miterlimit="10" stroke-linecap="round" stroke-linejoin="round"/>
<path d="M19.7517 177.378L36.3291 193.94" stroke="#FF723A" stroke-width="1.1533" stroke-miterlimit="10" stroke-linecap="round" stroke-linejoin="round"/>
<path d="M116.923 253.318L135.793 272.171" stroke="#FF723A" stroke-width="1.1533" stroke-miterlimit="10" stroke-linecap="round" stroke-linejoin="round"/>
<path d="M1.05811 137.558L97.1714 233.584" stroke="#FF723A" stroke-width="1.1533" stroke-miterlimit="10" stroke-linecap="round" stroke-linejoin="round"/>
<path d="M78.125 193.411L171.946 287.323" stroke="#FF723A" stroke-width="1.1533" stroke-miterlimit="10" stroke-linecap="round" stroke-linejoin="round"/>
<path d="M36.6816 152.006L58.3733 173.854" stroke="#FF723A" stroke-width="1.1533" stroke-miterlimit="10" stroke-linecap="round" stroke-linejoin="round"/>
<path d="M96.2896 190.592L156.956 251.203" stroke="#FF723A" stroke-width="1.1533" stroke-miterlimit="10" stroke-linecap="round" stroke-linejoin="round"/>
<path d="M34.3892 128.748L79.1832 173.501" stroke="#FF723A" stroke-width="1.1533" stroke-miterlimit="10" stroke-linecap="round" stroke-linejoin="round"/>
<path d="M146.375 219.488L177.942 251.203" stroke="#FF723A" stroke-width="1.1533" stroke-miterlimit="10" stroke-linecap="round" stroke-linejoin="round"/>
<path d="M61.7241 135.091L123.272 196.407" stroke="#FF723A" stroke-width="1.1533" stroke-miterlimit="10" stroke-linecap="round" stroke-linejoin="round"/>
<path d="M115.689 167.687L158.367 210.502" stroke="#FF723A" stroke-width="1.1533" stroke-miterlimit="10" stroke-linecap="round" stroke-linejoin="round"/>
<path d="M66.8384 119.057L98.9349 150.948" stroke="#FF723A" stroke-width="1.1533" stroke-miterlimit="10" stroke-linecap="round" stroke-linejoin="round"/>
<path d="M153.605 184.602L170.359 201.34" stroke="#FF723A" stroke-width="1.1533" stroke-miterlimit="10" stroke-linecap="round" stroke-linejoin="round"/>
<path d="M92.4099 123.462L134.735 165.749" stroke="#FF723A" stroke-width="1.1533" stroke-miterlimit="10" stroke-linecap="round" stroke-linejoin="round"/>
<path d="M144.963 155.001L155.192 165.22" stroke="#FF723A" stroke-width="1.1533" stroke-miterlimit="10" stroke-linecap="round" stroke-linejoin="round"/>
<path d="M127.152 137.029L134.206 144.077" stroke="#FF723A" stroke-width="1.1533" stroke-miterlimit="10" stroke-linecap="round" stroke-linejoin="round"/>
<g clip-path="url(#clip0_42:228)">
<path d="M8.15234 817.155L45.0248 837.483L82.1276 817.155L119 837.483L155.872 817.155L192.745 837.483L229.848 817.155" stroke="#2878EB" stroke-width="3" stroke-miterlimit="10" stroke-linecap="round" stroke-linejoin="round"/>
<path d="M8.15234 834.942L45.0248 855.27L82.1276 834.942L119 855.27L155.872 834.942L192.745 855.27L229.848 834.942" stroke="#2878EB" stroke-width="3" stroke-miterlimit="10" stroke-linecap="round" stroke-linejoin="round"/>
<path d="M8.15234 852.729L45.0248 873.058L82.1276 852.729L119 873.058L155.872 852.729L192.745 873.058L229.848 852.729" stroke="#2878EB" stroke-width="3" stroke-miterlimit="10" stroke-linecap="round" stroke-linejoin="round"/>
<path d="M8.15234 870.286L45.0248 890.845L82.1276 870.286L119 890.845L155.872 870.286L192.745 890.845L229.848 870.286" stroke="#2878EB" stroke-width="3" stroke-miterlimit="10" stroke-linecap="round" stroke-linejoin="round"/>
</g>
<path fill-rule="evenodd" clip-rule="evenodd" d="M752.639 13.7771C746.509 16.1458 740.38 18.5149 734.672 21.2577C712.651 32.5795 689.339 42.3809 668.218 55.2467C667.099 56.1135 665.502 55.8103 664.602 54.2663C663.731 53.1202 664.008 51.5054 665.519 50.6149C686.611 37.3513 710.315 27.5257 732.335 16.204C739.554 12.5706 747.979 9.26448 755.648 6.40308C758.335 5.44137 761.051 4.87756 763.738 3.91585C765.277 3.42314 767.965 2.46122 767.965 2.46122C769.112 1.99223 770.71 2.29541 771.189 3.46526C772.06 4.61139 771.754 5.82788 770.636 6.69473C770.636 6.69473 767.672 9.2718 766.161 10.1624C763.503 11.5219 761.659 13.2323 759.421 14.966C752.347 20.5886 744.008 25.0885 736.092 29.9629C719.14 40.5785 702.581 51.1706 686.05 62.1603C681.155 65.2536 677.159 69.8912 672.685 73.3586C671.566 74.2255 669.969 73.9217 668.706 72.7993C667.835 71.6532 668.111 70.0384 669.23 69.1716C674.096 65.6805 677.728 61.4644 682.986 57.9496C699.517 46.9598 716.47 36.345 733.422 25.7293C739.464 22.1671 746.262 18.1588 752.639 13.7771Z" fill="#FF723A"/>
<path fill-rule="evenodd" clip-rule="evenodd" d="M768.752 5.58969C768.36 5.61335 767.577 5.66066 767.186 5.68432C765.619 5.77898 763.689 6.29377 762.905 6.34109C755.884 7.16407 748.471 8.01072 741.507 9.62775C729.901 12.3228 718.121 12.6355 706.457 14.5365C684.725 18.6409 663.471 23.913 642.188 28.7877C640.65 29.2794 639.387 28.1594 638.909 26.992C638.402 25.4276 639.49 24.1653 640.636 23.6973C662.311 18.7989 683.537 13.1306 705.299 9.42329C716.934 7.12526 728.742 7.20861 740.348 4.51356C747.312 2.89653 755.117 2.0262 762.139 1.20322C763.706 1.10856 766.781 0.125797 768.769 0.404499C770.364 0.706866 771.96 1.00923 772.83 2.15297C774.149 4.0671 774.293 6.05225 773.654 8.0847C773.015 10.1171 771.201 12.2208 770.505 13.4592C766.629 19.6748 761.941 25.54 757.645 31.3823C746.876 45.5911 734.904 59.4743 725.788 74.7795C719.488 85.528 714.364 96.2054 707.644 106.581C706.947 107.819 704.989 107.938 703.756 107.215C702.523 106.492 702.015 104.927 703.104 103.665C710.245 93.6627 714.977 83.0094 721.277 72.2608C730.393 56.9557 742.366 43.073 753.106 28.4672C757.402 22.6249 762.118 17.1552 765.994 10.9395C766.719 10.0982 767.78 8.43942 768.476 7.20102C768.447 6.804 768.81 6.38374 768.752 5.58969C768.781 5.98671 768.752 5.58969 768.752 5.58969Z" fill="#FF723A"/>
<path fill-rule="evenodd" clip-rule="evenodd" d="M672.116 76.7276C672.897 76.6804 673.736 77.4245 674.184 78.1925C675.889 80.0771 677.624 82.3575 678.911 83.8699C682.293 87.2434 684.563 91.4798 687.945 94.8532C691.747 98.5989 696.387 103.089 698.685 107.72C699.162 108.884 700.781 109.582 702.314 109.092C703.847 108.602 704.122 106.994 703.616 105.435C700.899 100.431 695.84 95.5686 692.009 91.4272C688.627 88.0537 686.358 83.8183 683.366 80.4212C682.079 78.9088 680.345 76.6284 678.639 74.7437C676.934 72.8591 674.895 71.7891 672.914 71.5113C671.323 71.2098 670.238 72.468 669.934 73.679C669.658 75.2858 670.945 76.7984 672.116 76.7276Z" fill="#FF723A"/>
<path fill-rule="evenodd" clip-rule="evenodd" d="M635.49 31.3249C636.414 33.2553 637.699 34.7669 639.373 36.2546C640.629 37.3704 641.887 38.4862 642.781 40.0211C647.978 46.8574 651.89 52.1821 655.974 59.8802C656.451 61.0432 658.068 61.7405 659.599 61.2507C661.13 60.7609 661.404 59.1547 660.899 57.5962C656.815 49.8982 652.845 43.7826 647.258 36.9699C645.974 35.4585 644.689 33.9468 643.433 32.831C642.567 31.6916 641.31 30.5762 640.834 29.4133C640.358 28.2503 638.741 27.5539 637.21 28.0437C635.679 28.5335 634.986 29.7665 635.49 31.3249Z" fill="#FF723A"/>
<path fill-rule="evenodd" clip-rule="evenodd" d="M663.811 88.5235C664.657 84.1127 665.473 79.3068 665.932 74.9195C666.204 73.3177 667.306 72.458 668.879 72.7585C670.452 73.059 671.309 74.1959 671.037 75.7977C670.033 83.3885 668.258 91.0266 667.283 99.012C666.982 100.219 667.209 103.376 666.579 105.396C666.307 106.998 665.62 108.228 664.49 108.693C663.775 109.529 662.588 109.205 661.787 108.858C661.373 108.487 660.572 108.14 660.158 107.769C659.743 107.398 659.686 106.608 659.243 105.843C659.186 105.054 658.987 102.291 658.93 101.502C658.645 97.5565 658.36 93.6109 657.69 89.6887C656.734 81.8209 653.721 66.9446 655.14 59.7248C655.44 58.5175 656.928 57.6347 658.115 57.9587C659.688 58.2592 660.574 59.7907 660.274 60.9979C659.628 68.1706 662.47 80.6792 663.811 88.5235Z" fill="#FF723A"/>
<path fill-rule="evenodd" clip-rule="evenodd" d="M667.221 108.879C667.554 108.063 668.25 106.827 668.974 105.987C670.785 103.888 673.016 102.16 675.218 100.037C679.652 96.1872 684.085 92.3375 685.39 88.6765C686.086 87.4405 685.188 85.903 683.957 85.1813C682.726 84.4596 680.828 85.3705 680.524 86.583C679.19 89.8476 675.481 92.8569 671.801 96.2633C667.368 100.113 663.326 103.94 662.021 107.601C661.717 108.814 662.614 110.351 663.845 111.073C665.075 111.794 666.916 110.091 667.221 108.879Z" fill="#FF723A"/>
<path fill-rule="evenodd" clip-rule="evenodd" d="M659.039 112.921C658.319 113.758 657.656 115.386 657.354 116.595C657.166 119.384 657.394 122.544 657.538 124.519C657.652 126.099 658.905 127.213 660.459 127.119C662.013 127.025 663.093 125.769 663.007 124.584C662.893 123.004 662.72 120.633 662.966 118.635C662.908 117.845 662.852 117.055 663.572 116.218C664.652 114.962 664.148 113.405 663.314 112.662C661.673 111.571 660.119 111.665 659.039 112.921Z" fill="#FF723A"/>
<path fill-rule="evenodd" clip-rule="evenodd" d="M656.245 136.051C656.029 138.445 655.842 141.234 655.625 143.628C655.351 145.232 656.602 146.345 657.797 146.67C659.38 146.97 660.488 146.11 660.762 144.506C660.95 141.717 661.167 139.324 661.355 136.535C661.629 134.931 660.378 133.818 658.795 133.517C657.629 133.588 656.131 134.471 656.245 136.051Z" fill="#FF723A"/>
<path fill-rule="evenodd" clip-rule="evenodd" d="M651.08 159.733C651.109 160.128 651.109 160.128 651.138 160.523C651.167 160.919 650.805 161.338 650.443 161.757C649.779 163.386 648.695 164.643 648.391 165.854C648.087 167.064 648.592 168.622 650.209 169.318C651.407 169.643 653.33 169.129 653.634 167.919C653.937 166.709 655.38 165.034 655.655 163.428C656.32 161.799 656.567 159.797 656.091 158.634C655.586 157.076 653.97 156.379 652.829 156.845C651.269 156.94 650.575 158.174 651.08 159.733Z" fill="#FF723A"/>
<path fill-rule="evenodd" clip-rule="evenodd" d="M643.115 177.26C641.724 179.731 640.363 182.599 638.133 184.325C637.018 185.188 636.742 186.795 637.61 187.936C638.478 189.077 640.07 189.379 641.576 188.492C644.168 186.347 645.893 183.06 647.645 180.169C648.34 178.934 648.224 177.35 646.603 176.652C644.982 175.954 643.81 176.025 643.115 177.26Z" fill="#FF723A"/>
<path fill-rule="evenodd" clip-rule="evenodd" d="M628.863 194.817C627.021 196.522 625.571 198.202 623.701 199.51C622.584 200.374 622.308 201.985 623.177 203.128C624.046 204.271 625.641 204.572 627.149 203.685C629.02 202.376 630.832 200.275 632.674 198.57C633.791 197.706 634.067 196.095 632.806 194.976C631.545 193.857 629.98 193.953 628.863 194.817Z" fill="#FF723A"/>
<path fill-rule="evenodd" clip-rule="evenodd" d="M612.165 205.435C610.959 205.107 609.781 205.178 608.212 205.273C606.642 205.368 604.708 205.887 603.56 206.357C602.019 206.851 601.321 208.093 601.436 209.688C601.944 211.259 603.181 211.985 604.721 211.491C605.899 211.42 607.44 210.927 608.981 210.433C609.765 210.385 610.157 210.362 610.55 210.338C612.149 210.641 613.268 209.773 613.966 208.53C614.271 207.31 613.371 205.762 612.165 205.435Z" fill="#FF723A"/>
<path fill-rule="evenodd" clip-rule="evenodd" d="M587.258 205.526C583.697 205.341 580.138 205.156 576.883 203.751C575.676 203.424 573.742 203.942 573.436 205.162C573.13 206.381 573.64 207.952 575.268 208.654C578.915 210.035 583.26 210.172 586.85 210.756C588.449 211.059 589.539 209.793 589.815 208.174C590.092 206.556 588.828 205.431 587.258 205.526Z" fill="#FF723A"/>
<path fill-rule="evenodd" clip-rule="evenodd" d="M563.696 195.999C564.899 196.324 565.74 197.07 566.218 198.236C566.334 199.823 565.246 201.085 564.071 201.156C563.289 201.203 562.085 200.876 561.273 200.527C560.432 199.781 559.593 199.035 558.781 198.685C557.549 197.963 557.042 196.4 558.13 195.139C558.826 193.902 560.783 193.784 562.015 194.506C562.436 194.879 562.855 195.252 563.276 195.625C562.855 195.252 563.276 195.626 563.696 195.999Z" fill="#FF723A"/>
<path fill-rule="evenodd" clip-rule="evenodd" d="M561.376 178.383C561.593 175.988 561.839 173.987 562.864 171.94C563.557 170.707 563.051 169.149 561.436 168.453C560.21 167.733 558.681 168.222 557.988 169.455C556.602 171.922 556.413 174.713 556.225 177.503C555.95 179.108 557.205 180.224 558.402 180.548C559.989 180.849 561.101 179.988 561.376 178.383Z" fill="#FF723A"/>
<path fill-rule="evenodd" clip-rule="evenodd" d="M573.807 168.781C575.069 169.901 577.114 170.973 578.767 172.069C580 172.792 581.624 173.491 582.885 174.61C584.147 175.73 585.713 175.635 586.801 174.374C587.889 173.112 587.774 171.525 586.541 170.802C584.86 169.309 583.234 168.609 581.19 167.537C579.957 166.814 578.333 166.116 577.492 165.369C576.231 164.249 574.665 164.344 573.576 165.606C572.431 166.074 572.546 167.661 573.807 168.781Z" fill="#FF723A"/>
<path fill-rule="evenodd" clip-rule="evenodd" d="M586.451 180.614C586.537 181.8 587.013 182.962 587.489 184.124C587.965 185.287 588.8 186.03 588.887 187.216C589.002 188.798 590.257 189.913 591.787 189.424C593.345 189.33 594.426 188.072 594.312 186.491C594.197 184.909 593.303 183.376 592.828 182.213C592.381 181.446 591.933 180.679 591.875 179.888C591.761 178.307 590.507 177.192 588.977 177.682C587.448 178.171 586.364 179.428 586.451 180.614Z" fill="#FF723A"/>
<path fill-rule="evenodd" clip-rule="evenodd" d="M590.631 196.165C590.414 198.558 590.371 203.32 590.902 205.271C591.404 206.827 593.013 207.522 594.148 207.057C595.672 206.568 596.333 204.941 595.86 203.78C595.357 202.224 595.488 198.647 595.762 197.044C596.035 195.441 594.785 194.326 593.204 194.026C592.4 193.678 590.904 194.562 590.631 196.165Z" fill="#FF723A"/>
<path fill-rule="evenodd" clip-rule="evenodd" d="M554.297 185.129C553.661 187.153 554.051 187.13 553.415 189.154C553.14 190.76 554.396 191.876 555.595 192.201C557.183 192.502 558.295 191.64 558.57 190.035C558.816 188.034 558.845 188.429 559.091 186.428C559.395 185.218 558.5 183.683 556.912 183.382C556.103 183.034 554.6 183.919 554.297 185.129Z" fill="#FF723A"/>
<path fill-rule="evenodd" clip-rule="evenodd" d="M565.982 164.579C566.344 164.159 567.098 163.715 567.489 163.692C569.026 163.201 570.257 163.923 570.763 165.485C571.241 166.651 570.574 168.285 569.429 168.752C569.067 169.173 567.921 169.64 567.139 169.687C565.573 169.782 564.314 168.664 564.227 167.474C564.112 165.888 564.837 165.047 565.982 164.579Z" fill="#FF723A"/>
<path fill-rule="evenodd" clip-rule="evenodd" d="M590.856 211.969C589.47 214.435 588.948 218.04 588.341 220.459C588.067 222.064 589.322 223.18 590.519 223.504C592.106 223.805 593.219 222.944 593.493 221.339C593.739 219.339 594.318 216.524 595.343 214.477C596.036 213.244 595.531 211.686 594.305 210.966C593.078 210.247 591.549 210.736 590.856 211.969Z" fill="#FF723A"/>
<path fill-rule="evenodd" clip-rule="evenodd" d="M581.097 231.602C580.431 233.233 580.1 234.048 579.014 235.307C578.319 236.542 578.433 238.125 579.662 238.846C580.892 239.568 582.455 239.474 583.54 238.215C584.988 236.537 585.293 235.326 586.321 233.275C586.626 232.064 586.12 230.503 584.5 229.805C582.908 229.504 581.402 230.391 581.097 231.602Z" fill="#FF723A"/>
<path fill-rule="evenodd" clip-rule="evenodd" d="M570.818 243.752C569.672 244.22 568.555 245.084 567.438 245.949C566.321 246.814 566.044 248.425 566.914 249.568C567.784 250.711 569.379 251.014 570.888 250.126C571.642 249.682 572.76 248.816 573.906 248.349C575.023 247.484 575.69 245.849 574.821 244.706C573.951 243.563 571.935 242.887 570.818 243.752Z" fill="#FF723A"/>
<path fill-rule="evenodd" clip-rule="evenodd" d="M557.105 251.793C555.115 251.513 553.182 252.03 551.22 252.149C549.651 252.244 548.982 253.885 549.068 255.08C549.184 256.674 550.812 257.376 552.382 257.281C553.559 257.209 554.678 256.341 556.276 256.644C557.874 256.948 558.993 256.08 559.298 254.861C559.604 253.643 558.703 252.096 557.105 251.793Z" fill="#FF723A"/>
<path fill-rule="evenodd" clip-rule="evenodd" d="M537.735 251.892C536.559 251.964 534.541 251.287 533.365 251.358C531.768 251.055 530.651 251.922 530.374 253.536C530.098 255.15 531.36 256.272 532.565 256.599C534.554 256.878 536.964 257.53 538.532 257.435C540.101 257.341 540.769 255.703 540.683 254.51C540.538 252.522 539.275 251.4 537.735 251.892Z" fill="#FF723A"/>
<path fill-rule="evenodd" clip-rule="evenodd" d="M521.176 246.68C519.551 245.98 517.955 245.677 515.937 245.001C514.704 244.277 513.165 244.77 512.468 246.01C511.771 247.25 512.278 248.815 513.903 249.516C515.95 250.589 517.546 250.893 519.955 251.545C521.552 251.848 523.09 251.355 523.367 249.742C523.309 248.947 522.41 247.404 521.176 246.68Z" fill="#FF723A"/>
<path fill-rule="evenodd" clip-rule="evenodd" d="M506.452 239.355C504.829 238.657 503.959 237.514 502.336 236.815C501.104 236.093 499.567 236.584 498.871 237.821C498.174 239.058 498.682 240.621 500.306 241.32C501.929 242.019 503.189 243.138 504.812 243.836C506.044 244.559 507.974 244.045 508.25 242.434C508.193 241.641 507.684 240.078 506.452 239.355Z" fill="#FF723A"/>
<path fill-rule="evenodd" clip-rule="evenodd" d="M490.914 230.877C490.494 230.504 489.627 229.364 489.208 228.992C488.34 227.851 489.006 226.221 490.12 225.359C491.234 224.496 493.244 225.17 493.72 226.334C494.14 226.706 494.56 227.079 494.98 227.451C495.428 228.219 495.846 228.591 496.294 229.36C496.8 230.919 496.888 232.107 495.802 233.365C494.688 234.228 493.126 234.322 491.868 233.205C491.029 232.46 490.971 231.668 490.914 230.877Z" fill="#FF723A"/>
<defs>
<clipPath id="clip0_42:228">
<rect width="224" height="76" fill="white" transform="translate(7 816)"/>
</clipPath>
</defs>
</svg>
