<svg width="27" height="21" viewBox="0 0 27 21" fill="none" xmlns="http://www.w3.org/2000/svg">
<path fill-rule="evenodd" clip-rule="evenodd" d="M8.33238 5.66447H10.1664V4.90461H17.5027V5.66447H19.3368V4.90461H21.1708V7.18421H6.49831V4.90461H8.33238V5.66447ZM6.49831 8.70395V16.3026H21.1708V8.70395H6.49831ZM10.1664 3.38487H17.5027V2.625H19.3368V3.38487H21.1708C22.1838 3.38487 23.0049 4.06528 23.0049 4.90461V16.3026C23.0049 17.142 22.1838 17.8224 21.1708 17.8224H6.49831C5.48538 17.8224 4.66425 17.142 4.66425 16.3026V4.90461C4.66425 4.06528 5.48538 3.38487 6.49831 3.38487H8.33238V2.625H10.1664V3.38487Z" fill="#565656"/>
</svg>
