<svg width="27" height="46" viewBox="0 0 27 46" fill="none" xmlns="http://www.w3.org/2000/svg">
<path d="M13.576 0.000953597C16.8634 0.0051872 20.0149 1.31297 22.3394 3.63751C24.664 5.96204 25.9718 9.11357 25.976 12.401V12.463C25.976 12.504 25.981 12.563 25.986 12.646C26.241 17.146 25.504 29.311 13.2 44.894C13.0888 45.0332 12.9322 45.1288 12.7576 45.164C12.583 45.1993 12.4015 45.1719 12.2451 45.0867C12.0887 45.0015 11.9672 44.8639 11.9021 44.6981C11.837 44.5323 11.8323 44.3488 11.889 44.18C11.924 44.08 15.289 34.004 12.989 24.788C9.72163 24.6807 6.62881 23.2875 4.38344 20.9114C2.13808 18.5354 0.921842 15.3688 0.999355 12.1006C1.07687 8.83241 2.44186 5.72704 4.79734 3.46013C7.15283 1.19322 10.3082 -0.0517981 13.577 -0.00404652L13.576 0.000953597ZM24.463 12.361C24.4547 10.2093 23.8091 8.10838 22.6077 6.32339C21.4062 4.5384 19.7029 3.1494 17.7126 2.33175C15.7224 1.5141 13.5345 1.30446 11.4252 1.72931C9.31593 2.15416 7.37981 3.19444 5.86129 4.71881C4.34277 6.24318 3.30996 8.1833 2.89323 10.2942C2.47651 12.4051 2.69457 14.5922 3.51987 16.5793C4.34518 18.5663 5.74073 20.2643 7.53033 21.4589C9.31993 22.6534 11.4233 23.2909 13.575 23.291C13.7409 23.291 13.9022 23.3455 14.0341 23.4461C14.166 23.5468 14.2612 23.6879 14.305 23.848C16.047 30.189 15.193 36.84 14.327 40.876C24.087 27.204 24.7 16.769 24.472 12.735C24.4618 12.6109 24.4587 12.4864 24.463 12.362V12.361Z" fill="#FF723A"/>
</svg>
