<svg width="40" height="40" viewBox="0 0 40 40" fill="none" xmlns="http://www.w3.org/2000/svg">
<path d="M0.639362 18.4458L15.0848 4.00002C15.4971 3.58767 16.0467 3.36133 16.6327 3.36133C17.2194 3.36133 17.7686 3.58799 18.181 4.00002L19.4925 5.31188C19.9046 5.72358 20.1316 6.2735 20.1316 6.85984C20.1316 7.44585 19.9046 8.0143 19.4925 8.426L11.0653 16.8718H37.839C39.0462 16.8718 40 17.8168 40 19.0243V20.8789C40 22.0864 39.0462 23.1267 37.839 23.1267H10.9697L19.4922 31.6196C19.9042 32.032 20.1312 32.5669 20.1312 33.1533C20.1312 33.739 19.9042 34.2817 19.4922 34.6938L18.1807 36.0014C17.7683 36.4137 17.2191 36.6385 16.6324 36.6385C16.0464 36.6385 15.4968 36.4108 15.0844 35.9985L0.639038 21.553C0.225708 21.1394 -0.00160599 20.5872 2.28882e-05 20.0002C-0.00127792 19.4113 0.225708 18.8588 0.639362 18.4458Z" fill="#FF723A"/>
</svg>
